<svg xmlns="http://www.w3.org/2000/svg" viewBox="0 0 1250 208.58"><defs><style>.cls-1{fill:#012c4d;}.cls-2{fill:#2e83ff;}.cls-3{fill:#ffb839;}.cls-4{fill:#ff6717;}</style></defs><g id="Layer_2" data-name="Layer 2"><g id="Layer_1-2" data-name="Layer 1"><path class="cls-1" d="M949.05,155.65h-25L923.51,141c-6.86,10.67-18.68,16.58-31.25,16.58-21.16,0-35.45-12.77-35.45-31.83,0-19.82,17.34-32.78,43.64-32.78a120.68,120.68,0,0,1,22.67,2.29h0V76.73a3.4,3.4,0,0,0-3.4-3.4H863.29V52.94H923.5a25.55,25.55,0,0,1,25.55,25.55Zm-45.36-45c-12,0-20,5.72-20,14.48,0,8.39,5.53,13.91,16,13.91,12,0,23.25-9.52,23.44-26.3A102.78,102.78,0,0,0,903.69,110.68Z"/><path class="cls-1" d="M843.84,104c0,.27,0,.53,0,.8,0,31.64-21.54,52.79-49.17,52.79-15.82,0-27.26-6.48-34.5-17.34l-.57,15.43h-25V0h25.92V52.93h31C820,52.94,843.53,75.59,843.84,104Zm-26.86.42c0-18.68-11.44-31.25-28.21-31.25h-28.2V104.2c0,18.67,11.24,31.06,28.2,31.06C805.54,135.26,817,122.87,817,104.39Z"/><path class="cls-1" d="M1170,113.53a93.82,93.82,0,0,0,.77-10.85c0-31.07-20.59-51.64-51.27-51.64-30.87,0-51.25,21.53-51.25,53.93,0,31.63,21,52.59,52.39,52.59,0,0,40.66,1.21,48.17-32.58h-23.42v0c-6.1,7.41-14.65,12.18-25.12,12.18-15.06,0-22.68-9.15-24.58-23.63v0Zm-49.68-42.1c14.19,0,22.46,8.94,24.63,24.58h-49.26C1097.8,80.37,1106.08,71.43,1120.27,71.43Z"/><path class="cls-1" d="M1236.69,51c-18.23,0-24.42,19.14-24.42,19.14l-.38-17.23h-25V155.65h25.92V100.58c0-14.79,5.66-21.85,12.57-24.66a21.7,21.7,0,0,1,8.21-1.47H1250V51Z"/><polygon class="cls-1" points="1069.82 155.66 1037.18 155.66 998.82 112.39 994.41 112.39 994.41 155.66 968.49 155.66 968.49 0 994.41 0 994.41 91.05 999.02 91.05 1034.74 52.93 1067.35 52.93 1022.74 101.54 1069.82 155.66"/><path class="cls-1" d="M437.91,155.65h-25L412.37,141c-6.86,10.67-18.68,16.58-31.25,16.58-21.16,0-35.45-12.77-35.45-31.83C345.67,105.91,363,93,389.31,93A120.78,120.78,0,0,1,412,95.24h0V76.73a3.41,3.41,0,0,0-3.41-3.4H352.15V52.94h60.21a25.55,25.55,0,0,1,25.55,25.55Zm-45.36-45c-12,0-20,5.72-20,14.48,0,8.39,5.53,13.91,16,13.91,12,0,23.25-9.52,23.44-26.3A102.78,102.78,0,0,0,392.55,110.68Z"/><path class="cls-1" d="M712,52.93V183a25.55,25.55,0,0,1-25.55,25.55H618.57V185.72h64.06a3.41,3.41,0,0,0,3.41-3.41V157.56H655c-23.23,0-39.06-16-39.06-40.21V52.93h25.91v60.42c0,13.15,9,21.92,22.3,21.92H686V52.93Z"/><path class="cls-1" d="M507.12,51c-18.23,0-24.42,19.14-24.42,19.14l-.38-17.23h-25V155.65h25.92V100.58c0-14.79,5.66-21.85,12.57-24.66a21.7,21.7,0,0,1,8.21-1.47h16.38V51Z"/><path class="cls-1" d="M586.4,51C568.17,51,562,70.17,562,70.17l-.38-17.23h-25V155.65h25.92V100.58c0-14.79,5.66-21.85,12.57-24.66a21.66,21.66,0,0,1,8.21-1.47h16.38V51Z"/><path class="cls-1" d="M332.71,0V155.65H306.79v-77h0c-22.05,15.29-52.15,14.71-73,0h0v77H207.91V0h25.93V52.93l2.43,1.93a54.91,54.91,0,0,0,68.09,0l2.43-1.93V0Z"/><polygon class="cls-2" points="0 155.65 68.09 155.65 87.55 87.56 19.45 87.56 0 155.65"/><path class="cls-3" d="M87.55,155.65h53A34.51,34.51,0,0,0,173.75,131h0c6.31-21.75-10.28-43.4-33.25-43.4H107Z"/><polygon class="cls-1" points="0 0.01 68.09 0.01 87.55 68.1 19.45 68.1 0 0.01"/><path class="cls-4" d="M87.55,0h53A34.51,34.51,0,0,1,173.75,24.7h0c6.31,21.75-10.28,43.4-33.25,43.4H107Z"/></g></g></svg>